<svg width="937" height="212" fill="none" xmlns="http://www.w3.org/2000/svg"><path d="M485.849 79.552l18.196-12.42a3.747 3.747 0 001.567-2.407l.473-2.502a32.332 32.332 0 0018.375 10.465c17.64 3.33 34.632-8.267 37.962-25.91 3.331-17.643-8.264-34.636-25.903-37.966-17.64-3.33-34.632 8.267-37.962 25.91a32.347 32.347 0 003.044 20.93l-2.502-.473a3.747 3.747 0 00-2.813.582l-18.196 12.42a3.736 3.736 0 00-.983 5.205l3.525 5.166a3.767 3.767 0 005.217 1zm24.99-42.512c2.049-10.855 12.491-17.996 23.361-15.944 10.854 2.049 17.993 12.492 15.94 23.364-2.049 10.856-12.491 17.996-23.361 15.944-10.854-2.049-17.993-12.492-15.94-23.364z" fill="#9A2727" fill-opacity=".94"/><path d="M541 41.285c-.019.681-.595 1.215-1.276 1.215h-2.162v.625c0 .854-.19 1.663-.531 2.389l2.353 2.352a1.25 1.25 0 01-1.768 1.768l-2.138-2.138a5.603 5.603 0 01-3.541 1.254v-9.531a.468.468 0 00-.468-.469h-.938a.469.469 0 00-.469.469v9.531a5.602 5.602 0 01-3.54-1.254l-2.138 2.138a1.25 1.25 0 01-1.768-1.768l2.353-2.352a5.597 5.597 0 01-.532-2.389V42.5h-2.161c-.681 0-1.257-.534-1.276-1.215A1.25 1.25 0 01522.25 40h2.187v-2.295l-1.821-1.821a1.25 1.25 0 011.768-1.768l2.134 2.134h8.964l2.134-2.134a1.25 1.25 0 011.768 1.768l-1.822 1.821V40h2.188a1.25 1.25 0 011.25 1.285zM531.039 30a4.375 4.375 0 00-4.375 4.375h8.75A4.375 4.375 0 00531.039 30z" fill="#269947"/><path d="M90.3 127c0 5.6-1.05 10.85-3.15 15.75-2.1 4.9-4.95 9.15-8.55 12.75-3.6 3.6-7.9 6.45-12.9 8.55-4.9 2-10.15 3-15.75 3-3.9 0-7.7-.55-11.4-1.65-3.7-1.1-7.1-2.65-10.2-4.65V166H8.1V61l20.55-4.5V94c3.1-2.3 6.5-4.05 10.2-5.25 3.8-1.3 7.7-1.95 11.7-1.95 5.5 0 10.65 1.05 15.45 3.15 4.9 2.1 9.15 4.95 12.75 8.55 3.6 3.6 6.4 7.85 8.4 12.75 2.1 4.9 3.15 10.15 3.15 15.75zm-43.05-22.65c-3.7 0-7.15.65-10.35 1.95-3.2 1.2-5.95 3-8.25 5.4v30.75c2.2 2.2 4.9 3.95 8.1 5.25 3.3 1.3 6.8 1.95 10.5 1.95 6.4 0 11.8-2.15 16.2-6.45 4.4-4.4 6.6-9.8 6.6-16.2 0-6.4-2.25-11.75-6.75-16.05-4.4-4.4-9.75-6.6-16.05-6.6zm75.575-16.5v45.45c0 5 1.45 9 4.35 12 3 3 6.95 4.5 11.85 4.5 3.5 0 6.6-.65 9.3-1.95 2.8-1.4 5.1-3.35 6.9-5.85V87.85h20.55V166h-20.55v-6.3c-3 2.5-6.35 4.45-10.05 5.85-3.7 1.3-7.7 1.95-12 1.95-9 0-16.4-2.9-22.2-8.7-5.8-5.9-8.7-13.4-8.7-22.5V87.85h20.55zm104.966 78.6c-5.5 0-10.7-1.05-15.6-3.15-4.8-2.1-9-4.95-12.6-8.55-3.5-3.6-6.3-7.8-8.4-12.6-2-4.9-3-10.15-3-15.75 0-5.5 1.05-10.65 3.15-15.45 2.1-4.9 4.95-9.15 8.55-12.75 3.6-3.6 7.85-6.4 12.75-8.4 4.9-2.1 10.15-3.15 15.75-3.15 3.9 0 7.6.55 11.1 1.65 3.6 1.1 6.95 2.65 10.05 4.65v-5.1h20.25V166c0 10.3-3.35 18.25-10.05 23.85-6.6 5.6-16.15 8.4-28.65 8.4-6 0-11.8-.6-17.4-1.8-5.5-1.2-10.55-2.95-15.15-5.25l7.2-16.05c4.3 2.1 8.5 3.65 12.6 4.65 4.1 1.1 8.2 1.65 12.3 1.65 6.1 0 10.7-1.35 13.8-4.05 3.2-2.6 4.8-6.45 4.8-11.55v-6.45c-3.1 2.3-6.5 4.05-10.2 5.25-3.6 1.2-7.35 1.8-11.25 1.8zm-19.35-40.05c0 6.3 2.15 11.65 6.45 16.05 4.4 4.4 9.75 6.6 16.05 6.6 3.7 0 7.1-.6 10.2-1.8 3.1-1.3 5.8-3.05 8.1-5.25v-30.75c-2.2-2.2-4.9-3.9-8.1-5.1a26.45 26.45 0 00-10.05-1.95c-6.3 0-11.65 2.15-16.05 6.45-4.4 4.3-6.6 9.55-6.6 15.75zm77.54 39.6V61l20.55-4.5V94c3-2.5 6.3-4.4 9.9-5.7 3.7-1.3 7.7-1.95 12-1.95 9 0 16.4 2.9 22.2 8.7 5.8 5.8 8.7 13.25 8.7 22.35V166h-20.55v-45.6c0-4.9-1.5-8.85-4.5-11.85-2.9-3-6.8-4.5-11.7-4.5-3.4 0-6.5.7-9.3 2.1-2.7 1.3-4.95 3.2-6.75 5.7V166h-20.55zm108.133-78.15v45.45c0 5 1.45 9 4.35 12 3 3 6.95 4.5 11.85 4.5 3.5 0 6.6-.65 9.3-1.95 2.8-1.4 5.1-3.35 6.9-5.85V87.85h20.55V166h-20.55v-6.3c-3 2.5-6.35 4.45-10.05 5.85-3.7 1.3-7.7 1.95-12 1.95-9 0-16.4-2.9-22.2-8.7-5.8-5.9-8.7-13.4-8.7-22.5V87.85h20.55zM463.08 166V87.85h20.55V94c3-2.5 6.3-4.4 9.9-5.7 3.7-1.3 7.7-1.95 12-1.95 9 0 16.4 2.9 22.2 8.7 5.8 5.8 8.7 13.25 8.7 22.35V166h-20.55v-45.6c0-4.9-1.5-8.85-4.5-11.85-2.9-3-6.8-4.5-11.7-4.5-3.4 0-6.5.7-9.3 2.1-2.7 1.3-4.95 3.2-6.75 5.7V166h-20.55zm96.637-22.05V105.1h-16.05V87.85h16.05V67.9l20.55-4.65v24.6h22.2v17.25h-22.2v34.65c0 3.7.8 6.3 2.4 7.8 1.6 1.5 4.4 2.25 8.4 2.25 1.9 0 3.7-.1 5.4-.3 1.7-.3 3.55-.8 5.55-1.5v16.8c-2.2.7-4.85 1.25-7.95 1.65-3.1.5-5.75.75-7.95.75-8.7 0-15.3-1.95-19.8-5.85-4.4-4-6.6-9.8-6.6-17.4zm122.242 12.3c-4.8 3.9-9.75 6.75-14.85 8.55-5 1.8-10.6 2.7-16.8 2.7-5.9 0-11.45-1.05-16.65-3.15-5.1-2.1-9.55-4.95-13.35-8.55-3.7-3.6-6.65-7.85-8.85-12.75-2.1-5-3.15-10.35-3.15-16.05 0-5.6 1-10.85 3-15.75 2.1-5 4.95-9.3 8.55-12.9 3.6-3.7 7.85-6.6 12.75-8.7 5-2.1 10.3-3.15 15.9-3.15 5.5 0 10.6 1.1 15.3 3.3 4.8 2.1 8.9 5 12.3 8.7 3.5 3.7 6.2 8.15 8.1 13.35 2 5.1 3 10.65 3 16.65v5.4h-58.2c1.4 4.9 4.1 8.85 8.1 11.85s8.7 4.5 14.1 4.5c3.4 0 6.6-.55 9.6-1.65 3-1.1 5.55-2.65 7.65-4.65l13.5 12.3zm-33.9-52.8c-4.7 0-8.75 1.45-12.15 4.35-3.4 2.8-5.75 6.6-7.05 11.4h38.25c-1.3-4.6-3.7-8.35-7.2-11.25-3.4-3-7.35-4.5-11.85-4.5zm51.74 62.55V87.85h20.55v8.55c2.5-3.4 5.5-5.95 9-7.65 3.6-1.8 7.55-2.7 11.85-2.7 2 .1 3.65.3 4.95.6 1.4.2 2.6.6 3.6 1.2v18c-1.5-.7-3.15-1.2-4.95-1.5-1.8-.4-3.65-.6-5.55-.6-4 0-7.7 1-11.1 3-3.3 2-5.9 4.9-7.8 8.7V166h-20.55z" fill="#9A2727"/><path d="M760.883 197.35V87.85h20.25v6.45c3.1-2.5 6.55-4.35 10.35-5.55 3.8-1.3 7.75-1.95 11.85-1.95 5.5 0 10.65 1.05 15.45 3.15 4.9 2.1 9.15 4.95 12.75 8.55 3.6 3.6 6.4 7.85 8.4 12.75 2.1 4.9 3.15 10.15 3.15 15.75s-1.05 10.85-3.15 15.75c-2.1 4.9-4.95 9.15-8.55 12.75-3.6 3.6-7.9 6.45-12.9 8.55-4.9 2-10.15 3-15.75 3-3.8 0-7.55-.5-11.25-1.5-3.6-1.1-6.95-2.65-10.05-4.65v36.45h-20.55zm39.15-93c-3.7 0-7.15.65-10.35 1.95-3.2 1.2-5.95 3-8.25 5.4v30.75c2.2 2.2 4.9 3.95 8.1 5.25 3.3 1.3 6.8 1.95 10.5 1.95 6.4 0 11.8-2.15 16.2-6.45 4.4-4.4 6.6-9.8 6.6-16.2 0-6.4-2.25-11.75-6.75-16.05-4.4-4.4-9.75-6.6-16.05-6.6zM855.659 166V61l20.55-4.5V94c3-2.5 6.3-4.4 9.9-5.7 3.7-1.3 7.7-1.95 12-1.95 9 0 16.4 2.9 22.2 8.7 5.8 5.8 8.7 13.25 8.7 22.35V166h-20.55v-45.6c0-4.9-1.5-8.85-4.5-11.85-2.9-3-6.8-4.5-11.7-4.5-3.4 0-6.5.7-9.3 2.1-2.7 1.3-4.95 3.2-6.75 5.7V166h-20.55z" fill="#269947"/></svg>